<svg id="Layer_1" data-name="Layer 1" xmlns="http://www.w3.org/2000/svg" viewBox="0 0 149 283"><defs><style>.cls-1{fill:#000c14;}.cls-2{fill:#fff;}.cls-3{fill:#003da5;}.cls-4{fill:#221f1f;}.cls-5{fill:#fc4c02;}</style></defs><title>ShmoopS MobilePhone</title><g id="Page-1"><g id="WeatherApp"><path id="Shape" class="cls-1" d="M230.68,35H121.32c-10.94,0-19.82,7.53-19.82,16.81V301.19c0,9.28,8.87,16.81,19.82,16.81H230.68c10.95,0,19.82-7.53,19.82-16.81V51.81C250.5,42.53,241.62,35,230.68,35ZM177.47,305.19a10.9,10.9,0,1,1,10.94-10.9A10.92,10.92,0,0,1,177.47,305.19Z" transform="translate(-101.5 -35)"/><rect id="Rectangle-3" class="cls-2" x="6" y="37.5" width="137" height="208" rx="2" ry="2"/><path class="cls-2" d="M207.11,221.42c-.47,2.36-3.79,4.23-8.22,4.23s-7-1.87-6.56-4.23,3.78-4.23,8.22-4.23,7,1.87,6.56,4.23" transform="translate(-101.5 -35)"/><path class="cls-3" d="M193.45,225.62A4.29,4.29,0,0,1,191.1,222a4,4,0,0,1,.07-.77,5.83,5.83,0,0,1,3.23-3.82,13.39,13.39,0,0,1,6.15-1.37,11.06,11.06,0,0,1,5.44,1.22,4.31,4.31,0,0,1,2.35,3.66,4.77,4.77,0,0,1-.07.76l-1.16-.22,1.16.23a5.83,5.83,0,0,1-3.23,3.82,13.39,13.39,0,0,1-6.15,1.37,11,11,0,0,1-5.44-1.22m2.06-6.16a3.53,3.53,0,0,0-2,2.19,1.71,1.71,0,0,0,0,.31c0,.54.28,1.07,1.18,1.61a8.7,8.7,0,0,0,4.25.9,11,11,0,0,0,5-1.09,3.48,3.48,0,0,0,2-2.19h0a1.15,1.15,0,0,0,0-.31c0-.54-.28-1.07-1.18-1.61a8.59,8.59,0,0,0-4.25-.9h0a11,11,0,0,0-5,1.09" transform="translate(-101.5 -35)"/><path class="cls-2" d="M211.39,199.5c-.83,4.19-6.73,7.52-14.62,7.52s-12.47-3.33-11.64-7.52,6.72-7.53,14.61-7.53,12.47,3.34,11.65,7.53" transform="translate(-101.5 -35)"/><path class="cls-3" d="M187.34,206.57a7.17,7.17,0,0,1-4-6.12,6.84,6.84,0,0,1,.13-1.27c.56-2.78,2.67-5,5.51-6.48a23.24,23.24,0,0,1,10.73-2.39,19.05,19.05,0,0,1,9.43,2.11,7.14,7.14,0,0,1,4,6.12,6.84,6.84,0,0,1-.13,1.27l-1.62-.31,1.62.32c-.56,2.77-2.67,5-5.51,6.47a23.21,23.21,0,0,1-10.73,2.39,19.05,19.05,0,0,1-9.43-2.11m3.22-10.95c-2.29,1.22-3.55,2.78-3.81,4.2a2.83,2.83,0,0,0-.07.63c0,1.16.63,2.24,2.32,3.25a15.85,15.85,0,0,0,7.77,1.67,20.05,20.05,0,0,0,9.19-2c2.28-1.21,3.54-2.77,3.8-4.19a3,3,0,0,0,.07-.64c0-1.16-.63-2.24-2.32-3.25a15.82,15.82,0,0,0-7.77-1.67h0a19.92,19.92,0,0,0-9.16,2" transform="translate(-101.5 -35)"/><path class="cls-2" d="M216.88,211.19c-.62,3.14-5,5.64-11,5.64s-9.35-2.5-8.73-5.64,5-5.65,11-5.65,9.35,2.51,8.74,5.65" transform="translate(-101.5 -35)"/><path class="cls-3" d="M198.75,216.65a5.55,5.55,0,0,1-3.06-4.74,4.85,4.85,0,0,1,.1-1,7.58,7.58,0,0,1,4.22-5,17.59,17.59,0,0,1,8.13-1.81,14.45,14.45,0,0,1,7.16,1.61,5.16,5.16,0,0,1,3,5.73l-1.39-.27,1.39.27a7.58,7.58,0,0,1-4.23,5,17.47,17.47,0,0,1-8.13,1.81,14.35,14.35,0,0,1-7.16-1.6m2.59-8.21a4.82,4.82,0,0,0-2.77,3,2.28,2.28,0,0,0,0,.44c0,.79.42,1.54,1.66,2.28a11.49,11.49,0,0,0,5.73,1.22,14.79,14.79,0,0,0,6.81-1.47,4.87,4.87,0,0,0,2.76-3,2.48,2.48,0,0,0,.05-.45c0-.79-.42-1.55-1.65-2.29a11.75,11.75,0,0,0-5.74-1.22h0a14.77,14.77,0,0,0-6.78,1.48" transform="translate(-101.5 -35)"/><path class="cls-3" d="M155.33,198.69a39.78,39.78,0,0,1-12.26-4.37,19.71,19.71,0,0,1-7.49-7.46,15.92,15.92,0,0,1-2-7.58,16.23,16.23,0,0,1,.17-2.31,19,19,0,0,1,7-12.09,1.24,1.24,0,0,1-.1-.2,20.19,20.19,0,0,1-2.06-9.09,25.76,25.76,0,0,1,.25-3.54c1.22-8.29,6.38-14.66,12.91-19a44.14,44.14,0,0,1,24.44-6.88,54.34,54.34,0,0,1,10.54,1.11,36.65,36.65,0,0,1,11.6,4.3,19.72,19.72,0,0,1,7.49,7.79,16.7,16.7,0,0,1,1.83,7.58,18.31,18.31,0,0,1-.16,2.35,17.72,17.72,0,0,1-5.23,10.22c.32.48.64,1,.94,1.51a20.58,20.58,0,0,1,2.59,10.07,23.86,23.86,0,0,1-.22,3.16,25.55,25.55,0,0,1-5.12,12.1,31.31,31.31,0,0,1-9.23,7.91A46.3,46.3,0,0,1,168.42,200a67.08,67.08,0,0,1-13.09-1.26m-1.61-22Z" transform="translate(-101.5 -35)"/><path class="cls-4" d="M153.72,171.94c5.78,0,9.23,4.05,17.12,4.05,3.77,0,5.38-1.35,5.58-2.79.39-2.87-3.58-3.14-13.39-6.37-9-3-13.71-5.66-12.67-13.2,1.11-8,11.16-15.89,25.89-15.89,7.42,0,20.84,2.69,19.83,10-.48,3.5-4.11,5.93-8.48,5.93-3.65,0-8.58-3.5-14.24-3.5-2.48,0-5,.9-5.24,3-.76,5.48,28.17,4.22,26,19.57-1.37,9.88-13.14,15.72-25.75,15.72-11.54,0-24-3.51-23.17-9.7.55-4,4.35-6.74,8.47-6.74" transform="translate(-101.5 -35)"/><path class="cls-2" d="M154.9,192.42c-4.26-1-8.09-2.42-11.25-5.08a10.67,10.67,0,0,1-4-8.06,8.89,8.89,0,0,1,.1-1.36,12.94,12.94,0,0,1,5-8.46,14.27,14.27,0,0,1,5.4-2.61,13.68,13.68,0,0,1-5.47-11.26,19.24,19.24,0,0,1,.19-2.72c.87-6,4.79-11.16,10.26-14.8a38.14,38.14,0,0,1,21.11-5.87A48.32,48.32,0,0,1,187,133.5c3.78,1,7.56,2.26,10.75,5.06a11.23,11.23,0,0,1,3.93,8.38,11.09,11.09,0,0,1-.1,1.52,11.81,11.81,0,0,1-5.13,8.08,14.93,14.93,0,0,1-3.67,1.81A17,17,0,0,1,198,164a14.43,14.43,0,0,1,1.83,7.13,18.5,18.5,0,0,1-.16,2.33c-1,7-5.69,12.38-11.38,15.6a40.38,40.38,0,0,1-19.85,4.89,60,60,0,0,1-13.52-1.49m-.44-11.63a44.92,44.92,0,0,0,14,2.05,29.4,29.4,0,0,0,14.34-3.42c3.68-2.16,5.53-4.68,5.92-7.5a5.21,5.21,0,0,0,.06-.83,3.36,3.36,0,0,0-.64-2.09,8.29,8.29,0,0,0-2.56-2.16c-2.52-1.53-6.54-2.77-10.32-3.83a52.85,52.85,0,0,1-7.23-2.42,10.11,10.11,0,0,1-4.14-3.25,7.16,7.16,0,0,1-1.22-5,8.26,8.26,0,0,1,1.82-4.11,9.2,9.2,0,0,1,3-2.34,13.34,13.34,0,0,1,5.92-1.29,28.46,28.46,0,0,1,9.77,2.09,20.51,20.51,0,0,0,4.47,1.41,4.58,4.58,0,0,0,2.56-.67,1.48,1.48,0,0,0,.41-.39,1.76,1.76,0,0,0-.24-.24A10.36,10.36,0,0,0,187,145a34.89,34.89,0,0,0-10.76-1.77,27.22,27.22,0,0,0-15,4c-3.52,2.32-5.17,5.14-5.41,7.1a9.11,9.11,0,0,0-.08,1.19,3,3,0,0,0,.27,1.47,3,3,0,0,0,.95,1.07c1.14.94,3.86,2.18,7.79,3.44,3,1,5.39,1.68,7.42,2.3a28.91,28.91,0,0,1,5.45,2.07,8.39,8.39,0,0,1,3.56,3.56,7.39,7.39,0,0,1,.77,3.33,8.68,8.68,0,0,1-.07,1.13,8.28,8.28,0,0,1-4.17,6,13.63,13.63,0,0,1-6.89,1.59,29.54,29.54,0,0,1-11.38-2.4c-2.74-1.1-4.21-1.65-5.74-1.64v0a3.63,3.63,0,0,0-2.18.72,2.36,2.36,0,0,0-.66.77,11.88,11.88,0,0,0,3.58,1.82" transform="translate(-101.5 -35)"/><path class="cls-5" d="M153.54,171.94c5.77,0,9.22,4.05,17.12,4.05,3.77,0,5.37-1.35,5.57-2.79.4-2.87-3.57-3.14-13.38-6.37-9-3-13.71-5.66-12.67-13.2,1.1-8,11.15-15.89,25.88-15.89,7.43,0,20.84,2.69,19.84,10-.48,3.5-4.12,5.93-8.48,5.93-3.65,0-8.59-3.5-14.25-3.5-2.47,0-4.95.9-5.24,3-.76,5.48,28.17,4.22,26,19.57-1.36,9.88-13.13,15.72-25.74,15.72-11.55,0-24-3.51-23.17-9.7.54-4,4.34-6.74,8.47-6.74" transform="translate(-101.5 -35)"/><path class="cls-3" d="M204.91,184.74a4.87,4.87,0,0,1,.58-2.35,4.4,4.4,0,0,1,1.63-1.71,4.39,4.39,0,0,1,6.12,1.71,5,5,0,0,1,0,4.73,4.4,4.4,0,0,1-1.63,1.71,4.33,4.33,0,0,1-4.48,0,4.44,4.44,0,0,1-1.62-1.71A4.82,4.82,0,0,1,204.91,184.74Zm8.15,0a4.18,4.18,0,0,0-.47-1.94,3.68,3.68,0,0,0-1.34-1.43,3.56,3.56,0,0,0-3.74,0,3.62,3.62,0,0,0-1.35,1.42,4.14,4.14,0,0,0-.49,2,4.21,4.21,0,0,0,.49,2,3.69,3.69,0,0,0,1.34,1.43,3.59,3.59,0,0,0,3.74,0,3.79,3.79,0,0,0,1.34-1.44A4.15,4.15,0,0,0,213.06,184.74Zm-4.6.48v2.12h-1V182h1.77a2.37,2.37,0,0,1,1.5.43,1.47,1.47,0,0,1,.54,1.22,1.18,1.18,0,0,1-.71,1.09,1.11,1.11,0,0,1,.54.55,2.17,2.17,0,0,1,.15.86,5.94,5.94,0,0,0,0,.73,1.2,1.2,0,0,0,.08.36v.1h-1a4.55,4.55,0,0,1-.09-1.22.76.76,0,0,0-.89-.9Zm0-.84h.86a1.36,1.36,0,0,0,.76-.2.61.61,0,0,0,.3-.53.75.75,0,0,0-.22-.62,1.32,1.32,0,0,0-.81-.2h-.89Z" transform="translate(-101.5 -35)"/></g></g></svg>